<svg width="40" height="40" viewBox="0 0 40 40" fill="none" xmlns="http://www.w3.org/2000/svg">
<path d="M19.2647 36C16.6248 36 13.9975 35.6575 11.4454 34.985H6.2409C5.61435 34.9892 5.01705 34.7218 4.6077 34.2498C4.19836 33.7779 4.01458 33.1513 4.10229 32.5289L4.69124 28.3645C3.74307 26.8148 3.18336 24.3755 3.02463 21.0882C2.60694 13.4903 7.53994 6.62756 14.8789 4.60591C16.4912 4.19656 18.1536 3.99189 19.816 4.00025C24.7156 4.00025 28.8132 5.53319 31.6619 8.44454C34.5106 11.3559 36.1146 15.7417 36.0477 20.6246C36.0352 22.9971 35.5131 25.3404 34.5148 27.4915C31.1983 34.4211 24.5945 35.9916 19.2647 36ZM6.5124 32.5958H11.5206C11.7169 32.5958 11.909 32.6208 12.097 32.6751C13.6926 33.1137 27.485 36.6641 32.3428 26.4932C33.1949 24.647 33.6418 22.6379 33.6585 20.6079C33.7379 16.3724 32.4221 12.6299 29.9577 10.1487C27.4933 7.66762 24.1517 6.39783 19.8202 6.39783C18.3583 6.38947 16.9005 6.5649 15.4804 6.92412C9.24832 8.65757 5.06299 14.497 5.42221 20.9546C5.55588 23.8492 6.02787 25.9962 6.77973 27.1532C7.04705 27.5542 7.15983 28.0387 7.08882 28.5191L6.5124 32.5958Z" fill="#1F1F1F"/>
<path d="M20.0538 24.2345L19.5108 22.7977H14.8702L14.3189 24.2554C14.1852 24.6606 14.0056 25.0491 13.7759 25.4124C13.5962 25.6297 13.3164 25.7424 13.0323 25.7174C12.7358 25.7257 12.4434 25.6088 12.2345 25.3999C12.0257 25.2161 11.9046 24.953 11.9004 24.6731C11.9046 24.5102 11.9296 24.3515 11.9798 24.1928C12.0341 24.0257 12.1134 23.7918 12.2345 23.4994L15.1626 16.0811C15.242 15.8639 15.3464 15.6091 15.4592 15.2833C15.5552 15.0201 15.6805 14.7737 15.8351 14.5398C15.9688 14.3393 16.1442 14.1764 16.353 14.0594C17.0757 13.6292 18.0071 13.8381 18.4833 14.5314C18.617 14.7236 18.7297 14.9283 18.8175 15.1455L19.1683 16.031L22.1548 23.4075C22.3637 23.796 22.4974 24.222 22.5558 24.6606C22.5517 24.9405 22.4347 25.2036 22.23 25.3957C22.0212 25.6088 21.733 25.7257 21.4322 25.7215C21.2693 25.7257 21.1106 25.6923 20.9602 25.6255C20.8349 25.5628 20.7222 25.4751 20.6344 25.3623C20.5175 25.2036 20.4256 25.0282 20.3546 24.8444C20.2167 24.6188 20.1583 24.41 20.0538 24.2345ZM15.4759 21.0433H18.8801L17.1634 16.3275L15.4759 21.0433ZM24.3143 24.3056V15.3084C24.2851 14.9324 24.3979 14.5607 24.6318 14.2641C24.8365 14.0386 25.1247 13.9091 25.4296 13.9133C25.747 13.9007 26.0561 14.026 26.2733 14.2558C26.5072 14.5523 26.6242 14.9283 26.5908 15.3084V24.3056C26.6242 24.6857 26.5072 25.0658 26.2733 25.3665C26.0561 25.6004 25.747 25.7299 25.4296 25.7174C25.1247 25.7174 24.8365 25.5921 24.6318 25.3665C24.3979 25.0658 24.2851 24.6898 24.3143 24.3056Z" fill="#1F1F1F"/>
</svg>
