<svg width="64" height="64" viewBox="0 0 64 64" fill="none" xmlns="http://www.w3.org/2000/svg">
<path d="M4.92969 8H14.3606C16.6678 8 18.9524 8.46826 21.084 9.37805C23.2156 10.2878 25.1524 11.6213 26.7838 13.3024C28.4153 14.9835 29.7094 16.9792 30.5923 19.1756C31.4752 21.372 31.9297 23.7261 31.9297 26.1035V54H4.92969L4.92969 8Z" stroke="#161717" stroke-width="2.8"/>
<path d="M59.9297 54H31.9305L31.9297 26.1155C31.9266 23.7377 32.3955 21.3826 33.3097 19.1848C34.2239 16.9871 35.5654 14.9899 37.2575 13.3074C38.9496 11.6249 40.9592 10.2901 43.1712 9.37943C45.3832 8.46874 47.7543 8 50.1489 8H59.9289L59.9297 54Z" stroke="#161717" stroke-width="2.8"/>
<path d="M23 36H12" stroke="#161717" stroke-width="2.8" stroke-linecap="round"/>
<path d="M22.9297 29H11.9297" stroke="#161717" stroke-width="2.8" stroke-linecap="round"/>
<path d="M17 43H12" stroke="#161717" stroke-width="2.8" stroke-linecap="round"/>
</svg>
