<svg width="48" height="48" viewBox="0 0 48 48" fill="none" xmlns="http://www.w3.org/2000/svg">
<rect width="48" height="48" rx="4.8" fill="#0C63E2"/>
<path opacity="0.8" d="M25.0017 11.4902C26.1441 10.4944 27.6348 9.96241 29.1675 10.0037C30.7002 10.045 32.1584 10.6564 33.2426 11.7122C34.3258 12.7669 34.9537 14.1852 34.9975 15.6762C35.0414 17.1672 34.4979 18.6181 33.4785 19.7315L24.9997 28L16.5228 19.7315C15.5022 18.6176 14.9582 17.1654 15.0025 15.6732C15.0468 14.1809 15.6761 12.7618 16.7611 11.7072C17.8462 10.6526 19.3046 10.0425 20.8371 10.0021C22.3695 9.96179 23.8597 10.4943 25.0017 11.4902Z" fill="white"/>
<path d="M23.2402 33.1992L23.2441 33.2197M23.2402 33.1992L23.2725 33.1611M23.2402 33.1992L23.2441 33.2197M23.2402 33.1992L23.2725 33.1611M23.2441 33.2197L23.2549 33.2148M23.2441 33.2197L23.2549 33.2148M23.2549 33.2148L23.2725 33.1611M23.2549 33.2148L23.2725 33.1611M16.0146 26.7432C17.6004 26.2971 19.2933 26.2849 20.8857 26.709C22.0369 27.0157 23.2243 27.2021 24.4238 27.2627L29.8018 27.5342C30.4204 27.5656 31.0247 27.7803 31.5195 28.1621C32.0157 28.5451 32.3814 29.0814 32.5332 29.7021C32.627 30.0856 32.6036 30.4859 32.4678 30.8545C32.3324 31.2218 32.0946 31.5332 31.7969 31.7637C31.3994 32.0714 30.965 32.3263 30.5068 32.5293L30.7617 32.5166L31.1973 32.4834C32.2087 32.3839 33.1919 32.1254 34.1025 31.7207L39.8018 29.1895C40.3075 28.9623 40.878 28.9133 41.4131 29.0449C41.8843 29.1609 42.3206 29.4163 42.6475 29.791L42.7812 29.958V29.959C43.1256 30.4383 43.271 31.0363 43.165 31.6299C43.0595 32.2208 42.72 32.7258 42.2529 33.0625L36.3174 37.3398V37.3408C35.6448 37.8251 34.8805 38.1829 34.0693 38.3994L27.3799 40.1836C24.7461 40.8863 21.9646 40.9899 19.2783 40.4854L12.1699 39.1523C11.1171 38.9551 10.0445 38.8556 8.96875 38.8555H8.12891C7.86435 38.8555 7.60025 38.8078 7.35059 38.7139C7.10079 38.6198 6.86624 38.4797 6.66406 38.2959C6.46172 38.1119 6.29432 37.8867 6.17773 37.6309C6.06111 37.3748 5.99907 37.0956 5.99902 36.8105V28.7783H6.40918C6.47615 28.6895 6.54822 28.6044 6.62891 28.5273L6.7793 28.3975C7.14075 28.1122 7.58279 27.9549 8.03125 27.9346L8.82129 27.8994L9.73535 27.8447C11.8663 27.687 13.9721 27.3179 16.0146 26.7432Z" fill="white" stroke="#0C63E2" stroke-width="2.4"/>
</svg>
