<svg width="48" height="48" viewBox="0 0 48 48" fill="none" xmlns="http://www.w3.org/2000/svg">
<path fill-rule="evenodd" clip-rule="evenodd" d="M6.33689 31.2844C0.958203 18.0165 10.6708 3.5 24.9267 3.5H25.6958C36.3572 3.5 45 12.1858 45 22.9002C45 34.8294 35.3773 44.5 23.507 44.5H4.7947C4.03317 44.5 3.35457 44.017 3.10182 43.2951C2.84908 42.5731 3.07723 41.7695 3.67099 41.2903L8.38837 37.483C8.59463 37.3165 8.6676 37.0336 8.56779 36.7874L6.33689 31.2844ZM24.9267 7.10704C13.2198 7.10704 5.24386 19.0279 9.66082 29.9235L11.8917 35.4265C12.5904 37.15 12.0797 39.13 10.6358 40.2954L9.89535 40.893H23.507C33.395 40.893 41.4108 32.8373 41.4108 22.9002C41.4108 14.1779 34.3749 7.10704 25.6958 7.10704H24.9267Z" fill="black" stroke="#FAFAFA" stroke-width="1.8" stroke-linejoin="round"/>
<path d="M30 20.3152C30 20.8842 29.9139 21.398 29.7418 21.8563C29.5697 22.3147 29.2958 22.7573 28.9203 23.1841C28.5604 23.5951 28.0987 24.0298 27.5354 24.4881C26.8938 25.0098 26.4244 25.4761 26.1271 25.887C25.8454 26.298 25.7046 26.8038 25.7046 27.4045V27.545C25.7046 28.0959 25.2579 28.5425 24.707 28.5425C24.1561 28.5425 23.7094 28.0959 23.7094 27.545V27.4045C23.7094 26.7406 23.7955 26.1953 23.9676 25.7685C24.1398 25.3259 24.3823 24.9386 24.6953 24.6067C25.0239 24.2589 25.3994 23.8954 25.8219 23.516C26.2288 23.1683 26.5965 22.8285 26.9251 22.4965C27.2537 22.1646 27.5119 21.8247 27.6997 21.477C27.9031 21.1134 28.0049 20.7262 28.0049 20.3152C28.0049 19.4458 27.7388 18.7978 27.2068 18.371C26.6748 17.9442 25.9471 17.7308 25.0239 17.7308C24.3979 17.7308 23.8581 17.8573 23.4043 18.1102C22.9505 18.3631 22.5984 18.7345 22.348 19.2245C22.2296 19.4718 22.139 19.7472 22.0764 20.0508C21.966 20.5856 21.5361 21.0265 20.99 21.0265C20.4413 21.0265 19.9821 20.5831 20.0617 20.0402C20.1525 19.421 20.3434 18.8646 20.6346 18.371C21.0727 17.6123 21.6752 17.0274 22.4419 16.6165C23.2243 16.2055 24.1085 16 25.0943 16C26.1114 16 26.9799 16.1897 27.6997 16.569C28.4352 16.9326 28.9985 17.4384 29.3897 18.0865C29.7966 18.7187 30 19.4616 30 20.3152ZM23.4278 31.6712C23.4278 30.9646 24.0005 30.3919 24.707 30.3919C25.4135 30.3919 25.9862 30.9646 25.9862 31.6711V31.7208C25.9862 32.4273 25.4135 33 24.707 33C24.0005 33 23.4278 32.4273 23.4278 31.7208V31.6712Z" fill="black"/>
</svg>
