<svg width="64" height="64" viewBox="0 0 64 64" fill="none" xmlns="http://www.w3.org/2000/svg">
<path d="M53.4871 40.9484H56.5448C57.4878 40.9484 58.3922 40.5738 59.059 39.907C59.7258 39.2402 60.1004 38.3358 60.1004 37.3928V10.6669C60.1004 9.72389 59.7258 8.81952 59.059 8.15273C58.3922 7.48593 57.4878 7.11133 56.5448 7.11133H15.0634C14.1204 7.11133 13.216 7.48593 12.5492 8.15273C11.8824 8.81952 11.5078 9.72389 11.5078 10.6669V13.8195" stroke="#161717" stroke-width="2.8" stroke-miterlimit="10"/>
<path d="M53.3328 17.4345C53.3328 16.4915 52.9582 15.5871 52.2914 14.9203C51.6246 14.2535 50.7203 13.8789 49.7773 13.8789H8.29579C7.3528 13.8789 6.44843 14.2535 5.78163 14.9203C5.11483 15.5871 4.74023 16.4915 4.74023 17.4345V44.1604C4.74023 45.1034 5.11483 46.0078 5.78163 46.6745C6.44843 47.3413 7.3528 47.7159 8.29579 47.7159H14.5536L12.3254 56.3322C12.2445 56.5867 12.252 56.861 12.3464 57.1107C12.4409 57.3604 12.617 57.5709 12.846 57.7081C13.0751 57.8452 13.3438 57.901 13.6085 57.8664C13.8733 57.8318 14.1186 57.7089 14.3047 57.5174L24.2958 47.7515H49.7299C50.6729 47.7515 51.5772 47.3769 52.244 46.7101C52.9108 46.0433 53.2854 45.1389 53.2854 44.1959L53.3328 17.4345Z" stroke="#161717" stroke-width="2.8" stroke-miterlimit="10"/>
<path d="M18.4161 33.1857C20.0525 33.1857 21.3791 31.8591 21.3791 30.2227C21.3791 28.5863 20.0525 27.2598 18.4161 27.2598C16.7797 27.2598 15.4531 28.5863 15.4531 30.2227C15.4531 31.8591 16.7797 33.1857 18.4161 33.1857Z" fill="#161717"/>
<path d="M29.0841 33.1857C30.7205 33.1857 32.047 31.8591 32.047 30.2227C32.047 28.5863 30.7205 27.2598 29.0841 27.2598C27.4477 27.2598 26.1211 28.5863 26.1211 30.2227C26.1211 31.8591 27.4477 33.1857 29.0841 33.1857Z" fill="#161717"/>
<path d="M39.7501 33.1857C41.3865 33.1857 42.713 31.8591 42.713 30.2227C42.713 28.5863 41.3865 27.2598 39.7501 27.2598C38.1137 27.2598 36.7871 28.5863 36.7871 30.2227C36.7871 31.8591 38.1137 33.1857 39.7501 33.1857Z" fill="#161717"/>
</svg>
