<svg width="40" height="40" viewBox="0 0 40 40" fill="none" xmlns="http://www.w3.org/2000/svg">
<path d="M34.3036 9H5.12495C4.50366 9 4 9.49246 4 10.1V29.9C4 30.5075 4.50366 31 5.12495 31H34.3036C34.9249 31 35.4286 30.5075 35.4286 29.9V10.1C35.4286 9.49246 34.9249 9 34.3036 9ZM31.0336 11.1999L19.7143 19.8375L8.39489 11.1999H31.0336ZM6.24991 28.8001V12.3537L19.0221 22.1C19.2198 22.251 19.4634 22.3329 19.7143 22.3328C19.9651 22.3329 20.2087 22.251 20.4064 22.1L33.1786 12.3537V28.8001H6.24991Z" fill="#1F1F1F"/>
</svg>
