<svg width="64" height="64" viewBox="0 0 64 64" fill="none" xmlns="http://www.w3.org/2000/svg">
<path d="M49.0013 27.1699C47.6231 28.9461 46.3669 30.8137 45.2413 32.7599C44.0413 34.7599 43.0013 36.5999 42.0413 38.4399C40.2013 42.0399 38.3613 46.9199 38.3613 50.0399C38.3762 51.3655 38.6687 52.6733 39.2198 53.8789C39.771 55.0846 40.5686 56.1614 41.5613 57.0399C43.6341 58.9349 46.3532 59.9653 49.1613 59.9199C50.5638 59.9492 51.9581 59.699 53.2629 59.184C54.5677 58.6689 55.757 57.8993 56.7613 56.9199C57.7711 56.0602 58.5755 54.9852 59.1154 53.7738C59.6553 52.5625 59.917 51.2456 59.8813 49.9199C59.8813 41.6799 48.8813 27.1299 49.0013 27.2099V27.1699Z" stroke="#161717" stroke-width="2.8" stroke-linejoin="round"/>
<path d="M36.2 57.26H9C6.79086 57.26 5 55.4691 5 53.26V9C5 6.79086 6.79086 5 9 5H44.73C46.9391 5 48.73 6.79086 48.73 9V23.51" stroke="#161717" stroke-width="2.8" stroke-linejoin="round"/>
<path d="M19.351 23H13.041C11.9364 23 11.041 23.8954 11.041 25V30.87C11.041 31.9746 11.9364 32.87 13.041 32.87H19.351C20.4556 32.87 21.351 31.9746 21.351 30.87V25C21.351 23.8954 20.4556 23 19.351 23Z" stroke="#161717" stroke-width="2.8" stroke-linejoin="round"/>
<path d="M19.351 38.3008H13.041C11.9364 38.3008 11.041 39.1962 11.041 40.3008V46.1708C11.041 47.2754 11.9364 48.1708 13.041 48.1708H19.351C20.4556 48.1708 21.351 47.2754 21.351 46.1708V40.3008C21.351 39.1962 20.4556 38.3008 19.351 38.3008Z" stroke="#161717" stroke-width="2.8" stroke-linejoin="round"/>
<path d="M26.2305 23.1094H42.5805" stroke="#161717" stroke-width="2.8" stroke-linejoin="round"/>
<path d="M10 16L43 16" stroke="#161717" stroke-width="2.8" stroke-linejoin="round"/>
<path d="M26.2305 30.8691H38.8105" stroke="#161717" stroke-width="2.8" stroke-linejoin="round"/>
</svg>
