<svg width="48" height="48" viewBox="0 0 48 48" fill="none" xmlns="http://www.w3.org/2000/svg">
<rect width="48" height="48" rx="4.8" fill="#0C63E2"/>
<path d="M7.25826 15.5361C7.25826 15.5361 7.25826 15.4614 7.33594 15.4614C7.33594 15.3867 7.41362 15.312 7.41362 15.312L7.4913 15.2373C7.4913 15.1625 7.56898 15.1625 7.56898 15.0878L7.64666 15.0131L7.72434 14.9384H7.80202H7.87971L21.0077 8.51247C21.3184 8.36303 21.7068 8.36303 22.0175 8.51247L28.0766 11.4265L14.3272 18.0019C14.0165 18.226 13.7834 18.5996 13.7834 18.9732V25.5486C13.7834 26.1463 14.3272 26.6694 14.9486 26.6694C15.5701 26.6694 16.1138 26.2211 16.1138 25.5486V19.7204L30.7954 12.6221L35.3009 14.7889H35.3786H35.4562L35.5339 14.8637L35.6116 14.9384C35.6893 15.0131 35.6893 15.0131 35.6893 15.0878L35.767 15.1625C35.767 15.2373 35.8446 15.312 35.8446 15.312C35.8446 15.312 35.8446 15.3867 35.9223 15.3867C35.9223 15.4614 36 15.6109 36 15.6856V30.9284C36 31.3767 35.767 31.7503 35.3786 31.8998L22.1729 38.251C22.0952 38.251 22.0952 38.251 22.0175 38.3257H21.9399C21.8622 38.3257 21.7845 38.4004 21.6291 38.4004C21.4738 38.4004 21.3961 38.4004 21.3184 38.3257H21.2407C21.163 38.3257 21.163 38.3257 21.0854 38.251L7.87971 31.8998C7.4913 31.6756 7.25826 31.302 7.25826 30.9284V15.835C7.18058 15.7603 7.18058 15.6109 7.25826 15.5361Z" fill="white"/>
<path d="M33.3948 40.313C28.9564 40.313 25.3457 36.7023 25.3457 32.2639C25.3457 27.8255 28.9564 24.2148 33.3948 24.2148C37.8332 24.2148 41.4438 27.8255 41.4438 32.2639C41.4438 36.7023 37.8332 40.313 33.3948 40.313Z" fill="#0C63E2"/>
<path d="M33.5988 24.8526C37.7627 24.8526 41.1458 28.2358 41.1458 32.3996C41.1458 36.5635 37.7627 39.9466 33.5988 39.9466C29.435 39.9466 26.0518 36.5635 26.0518 32.3996C26.0518 28.2358 29.435 24.8526 33.5988 24.8526ZM33.5988 21.5996C27.6458 21.5996 22.7988 26.4466 22.7988 32.3996C22.7988 38.3526 27.6458 43.1996 33.5988 43.1996C39.5518 43.1996 44.3988 38.3526 44.3988 32.3996C44.3988 26.4466 39.5518 21.5996 33.5988 21.5996Z" fill="#0C63E2"/>
<g opacity="0.8">
<path d="M33.3967 40.313C28.9583 40.313 25.3477 36.7023 25.3477 32.2639C25.3477 27.8255 28.9583 24.2148 33.3967 24.2148C37.8351 24.2148 41.4458 27.8255 41.4458 32.2639C41.4458 36.7023 37.8351 40.313 33.3967 40.313Z" fill="white"/>
<path d="M39.6563 40.821C40.2792 41.4682 41.3089 41.4879 41.9561 40.8649C42.6033 40.242 42.6229 39.2123 42 38.5651L40.8281 39.6931L39.6563 40.821ZM36.1699 34.8535L34.9981 35.9815L39.6563 40.821L40.8281 39.6931L42 38.5651L37.3418 33.7256L36.1699 34.8535Z" fill="white"/>
</g>
<path d="M33.6025 36.7909C36.0279 36.7909 37.9941 34.8248 37.9941 32.3994C37.9941 29.974 36.0279 28.0078 33.6025 28.0078C31.1771 28.0078 29.2109 29.974 29.2109 32.3994C29.2109 34.8248 31.1771 36.7909 33.6025 36.7909Z" fill="#0C63E2"/>
</svg>
