<svg width="239" height="84" viewBox="0 0 239 84" fill="none" xmlns="http://www.w3.org/2000/svg">
<g clip-path="url(#clip0_24053_5280)">
<path d="M55.4463 32.6348C52.7555 32.6348 50.175 33.6919 48.2723 35.5737C46.3697 37.4554 45.3008 40.0076 45.3008 42.6688V52.5254H49.3584V42.6688C49.3584 41.072 49.9998 39.5405 51.1415 38.4114C52.2832 37.2822 53.8317 36.6479 55.4463 36.6479C57.0609 36.6479 58.6094 37.2822 59.751 38.4114C60.8927 39.5405 61.5341 41.072 61.5341 42.6688V52.5254H65.5918V42.6688C65.5918 40.0076 64.5229 37.4554 62.6202 35.5737C60.7176 33.6919 58.1371 32.6348 55.4463 32.6348Z" fill="black"/>
<path d="M83.5822 33.2626V34.64C82.0748 33.5225 80.2825 32.8421 78.4062 32.6751C76.5299 32.5082 74.6436 32.8612 72.9587 33.6947C71.2738 34.5282 69.8568 35.8092 68.8664 37.3942C67.8761 38.9792 67.3516 40.8056 67.3516 42.6688C67.3516 44.5321 67.8761 46.3585 68.8664 47.9435C69.8568 49.5285 71.2738 50.8095 72.9587 51.643C74.6436 52.4765 76.5299 52.8295 78.4062 52.6626C80.2825 52.4956 82.0748 51.8152 83.5822 50.6977V52.5254H87.6426V33.2626H83.5822ZM77.4944 48.6951C76.2903 48.6951 75.1133 48.342 74.1122 47.6804C73.111 47.0188 72.3307 46.0785 71.87 44.9783C71.4092 43.8781 71.2886 42.6675 71.5235 41.4995C71.7584 40.3316 72.3382 39.2587 73.1896 38.4167C74.041 37.5746 75.1258 37.0012 76.3067 36.7689C77.4876 36.5365 78.7117 36.6558 79.8241 37.1115C80.9365 37.5672 81.8873 38.3389 82.5563 39.3291C83.2252 40.3192 83.5822 41.4833 83.5822 42.6741C83.5822 43.4648 83.4248 44.2478 83.1188 44.9783C82.8129 45.7088 82.3645 46.3725 81.7992 46.9316C81.2338 47.4907 80.5627 47.9342 79.8241 48.2368C79.0855 48.5394 78.2939 48.6951 77.4944 48.6951Z" fill="black"/>
<path d="M100.708 32.6348C98.0173 32.6348 95.4367 33.6919 93.534 35.5737C91.6314 37.4554 90.5625 40.0076 90.5625 42.6688V60.9993H94.6228V50.6977C95.9091 51.6512 97.406 52.2889 98.9902 52.5581C100.574 52.8272 102.201 52.7202 103.735 52.2459C105.269 51.7716 106.668 50.9435 107.815 49.8299C108.962 48.7162 109.825 47.3489 110.333 45.8406C110.841 44.3324 110.98 42.7262 110.737 41.1546C110.495 39.583 109.878 38.0909 108.938 36.8013C107.998 35.5116 106.762 34.4613 105.331 33.7369C103.9 33.0125 102.315 32.6348 100.708 32.6348ZM100.708 48.6898C99.5041 48.6893 98.3273 48.3357 97.3265 47.6738C96.3257 47.0119 95.5459 46.0714 95.0855 44.9711C94.6251 43.8709 94.5049 42.6604 94.7401 41.4926C94.9753 40.3248 95.5554 39.2522 96.4069 38.4104C97.2584 37.5686 98.3431 36.9955 99.524 36.7634C100.705 36.5313 101.929 36.6507 103.041 37.1064C104.153 37.5622 105.104 38.334 105.773 39.324C106.442 40.3141 106.799 41.4781 106.799 42.6688C106.799 43.4602 106.642 44.2439 106.336 44.9752C106.031 45.7065 105.582 46.371 105.016 46.9307C104.451 47.4904 103.779 47.9343 103.04 48.2371C102.301 48.5398 101.508 48.6955 100.708 48.6951V48.6898Z" fill="black"/>
<path d="M162.939 33.2626V36.6479C161.662 34.9632 159.88 33.7189 157.848 33.091C155.815 32.4632 153.635 32.4838 151.615 33.1498C149.595 33.8158 147.838 35.0935 146.593 36.802C145.348 38.5104 144.678 40.5629 144.678 42.6688C144.678 44.7748 145.348 46.8273 146.593 48.5357C147.838 50.2442 149.595 51.5219 151.615 52.1879C153.635 52.8539 155.815 52.8745 157.848 52.2467C159.88 51.6188 161.662 50.3745 162.939 48.6898V52.5254H164.969V33.2626H162.939ZM154.824 50.6977C153.218 50.6982 151.648 50.2278 150.313 49.3459C148.978 48.464 147.937 47.2102 147.322 45.7432C146.707 44.2762 146.546 42.6617 146.859 41.1041C147.172 39.5465 147.945 38.1156 149.08 36.9925C150.215 35.8694 151.662 35.1045 153.237 34.7945C154.811 34.4844 156.444 34.6433 157.927 35.2509C159.411 35.8585 160.679 36.8876 161.571 38.208C162.463 39.5284 162.939 41.0808 162.939 42.6688C162.939 44.7978 162.084 46.8395 160.562 48.3452C159.041 49.8508 156.976 50.697 154.824 50.6977Z" fill="black"/>
<path d="M143.281 40.5399C143.254 38.771 142.637 37.0605 141.525 35.6744C140.414 34.2882 138.871 33.3039 137.136 32.8747C135.4 32.4454 133.57 32.5951 131.93 33.3006C130.29 34.0061 128.931 35.2278 128.065 36.7758C127.199 35.2278 125.841 34.0061 124.2 33.3006C122.56 32.5951 120.73 32.4454 118.995 32.8747C117.26 33.3039 115.716 34.2882 114.605 35.6744C113.494 37.0605 112.877 38.771 112.85 40.5399V52.5262H114.877V40.6617C114.877 39.0649 115.518 37.5334 116.66 36.4042C117.802 35.2751 119.35 34.6407 120.965 34.6407C122.58 34.6407 124.128 35.2751 125.27 36.4042C126.411 37.5334 127.053 39.0649 127.053 40.6617V52.5262H129.083V40.6617C129.083 39.0649 129.724 37.5334 130.866 36.4042C132.008 35.2751 133.556 34.6407 135.171 34.6407C136.785 34.6407 138.334 35.2751 139.476 36.4042C140.617 37.5334 141.259 39.0649 141.259 40.6617V52.5262H143.289V40.5399H143.281Z" fill="black"/>
<path d="M199.551 43.9035C199.308 45.4607 198.607 46.9125 197.534 48.0778C196.462 49.2431 195.066 50.0702 193.522 50.4559C191.977 50.8415 190.352 50.7687 188.848 50.2465C187.345 49.7242 186.031 48.7757 185.07 47.5193L195.837 41.3712L199.016 39.5566L200.786 38.5448C200.647 38.2428 200.491 37.9461 200.323 37.6521C199.093 35.5427 197.129 33.9475 194.798 33.1635C192.467 32.3795 189.927 32.4601 187.652 33.3904C185.377 34.3206 183.521 36.0371 182.43 38.2201C181.339 40.4031 181.087 42.9039 181.722 45.2566C182.357 47.6094 183.835 49.6538 185.88 51.0091C187.926 52.3643 190.4 52.9381 192.841 52.6235C195.283 52.309 197.525 51.1275 199.152 49.2991C200.778 47.4707 201.677 45.1201 201.681 42.685L199.551 43.9035ZM187.475 35.7157C189.187 34.739 191.202 34.4138 193.139 34.801C195.077 35.1882 196.806 36.2613 198.001 37.819L184.055 45.7816C183.288 43.9796 183.212 41.9628 183.842 40.1096C184.471 38.2563 185.763 36.694 187.475 35.7157Z" fill="black"/>
<path d="M182.922 32.6328H180.054L169.933 42.643V24H167.902V52.5261H169.933V45.48L171.384 44.0443L179.96 52.5261H182.829L172.82 42.6245L182.922 32.6328Z" fill="black"/>
<path d="M203.852 42.6688V52.5254H205.882V42.6847V42.6688C205.882 40.5395 206.737 38.4973 208.259 36.9916C209.782 35.4859 211.847 34.64 214 34.64V32.6348C212.667 32.6344 211.348 32.8937 210.116 33.3978C208.885 33.9019 207.766 34.641 206.824 35.5727C205.882 36.5045 205.134 37.6108 204.624 38.8284C204.114 40.0459 203.852 41.3509 203.852 42.6688Z" fill="black"/>
<path d="M33.3197 40.3872C31.5412 40.0826 30.4137 39.0628 30.5824 38.2045C30.8208 36.9701 32.7465 36.6496 35.3498 36.5701C37.5224 36.5229 39.6839 36.8898 41.7162 37.6509L43.192 34.2391C40.7367 33.1569 38.0857 32.5767 35.398 32.5332C30.0869 32.5332 26.0078 35.3305 26.0078 38.4694C26.0078 41.8812 30.0949 44.0772 34.0428 44.448C37.2568 44.75 39.2361 45.9287 39.1316 47.0492C39.0325 48.0373 37.3746 48.5273 35.5453 48.6121C32.8764 48.7373 30.2089 48.3366 27.6978 47.4333L26.2248 50.8769C29.4245 52.3312 32.9552 52.9259 36.4613 52.6014C41.4886 52.1351 44.4963 48.877 44.1214 46.244C43.3902 41.0892 36.4212 40.925 33.3197 40.3872Z" fill="black"/>
</g>
<defs>
<clipPath id="clip0_24053_5280">
<rect width="188" height="37" fill="white" transform="translate(26 24)"/>
</clipPath>
</defs>
</svg>
