<svg width="64" height="64" viewBox="0 0 64 64" fill="none" xmlns="http://www.w3.org/2000/svg">
<path d="M31.7115 36.0119L28.1559 39.5674L29.1634 40.563C29.6468 41.0474 29.9183 41.7038 29.9183 42.3882C29.9183 43.0725 29.6468 43.729 29.1634 44.2134L16.0078 57.3808C15.5234 57.8642 14.867 58.1357 14.1826 58.1357C13.4982 58.1357 12.8418 57.8642 12.3574 57.3808L5.49519 50.5185C5.01173 50.0341 4.74023 49.3777 4.74023 48.6934C4.74023 48.009 5.01173 47.3526 5.49519 46.8682L18.7693 33.6771L18.9589 33.4993C19.4553 33.0948 20.0841 32.8891 20.7235 32.922C21.3629 32.9548 21.9674 33.2239 22.4197 33.6771L23.427 34.6845L26.9826 31.1289" stroke="#161717" stroke-width="2.8"/>
<path d="M33.6328 24.4104L44.4891 13.5541L45.0936 11.1837L45.2358 10.6385L45.7099 10.3422L50.901 7.08296L51.861 6.47852L52.655 7.28444L55.5113 10.2356L56.3173 11.0296L55.7128 11.9896L52.4654 17.1807L52.1573 17.6548L51.6121 17.797L49.2417 18.3896L38.4565 29.1867" stroke="#161717" stroke-width="2.8"/>
<path d="M14.8008 5.38661C16.7742 4.68177 18.9069 4.55027 20.9519 5.00735C22.9867 5.48056 24.8498 6.51058 26.3326 7.98217C28.0077 9.68418 29.0956 11.8766 29.4378 14.2399C29.7536 16.24 29.5201 18.2882 28.7623 20.1659L58.4986 48.5392C58.7448 48.7789 58.9405 49.0654 59.0741 49.3819C59.2077 49.6985 59.2766 50.0386 59.2766 50.3822C59.2766 50.7258 59.2077 51.0659 59.0741 51.3824C58.9405 51.6989 58.7448 51.9855 58.4986 52.2251L54.6349 56.0888C54.3934 56.3339 54.1055 56.5286 53.7881 56.6614C53.4707 56.7943 53.1301 56.8627 52.786 56.8627C52.4419 56.8627 52.1012 56.7943 51.7838 56.6614C51.4664 56.5286 51.1786 56.3339 50.9371 56.0888L22.5756 26.3525C20.8464 27.0579 18.9679 27.3187 17.1119 27.1111C14.8878 26.8612 12.7902 25.9486 11.0911 24.4918C9.37579 23.0371 8.13706 21.1005 7.53559 18.9333C6.95138 16.7755 7.02985 14.4918 7.76078 12.3792L8.50745 10.2222L10.1075 11.834L14.0304 15.757L18.0363 11.7511L12.5134 6.21624L14.8008 5.38661Z" stroke="#161717" stroke-width="2.8"/>
</svg>
