<svg width="64" height="64" viewBox="0 0 64 64" fill="none" xmlns="http://www.w3.org/2000/svg">
<path d="M41.6851 56.2084C36.1611 58.4184 30.0473 58.6728 24.3587 56.9292C18.6702 55.1856 13.749 51.5488 10.4122 46.6228C7.07546 41.6968 5.52376 35.7777 6.01474 29.8482C6.50572 23.9187 9.00984 18.3355 13.1114 14.0254C17.213 9.71526 22.6652 6.93753 28.5631 6.15331C34.461 5.36909 40.4497 6.62556 45.535 9.71412C50.6204 12.8027 54.4965 17.5376 56.5198 23.1327C58.5432 28.7279 58.5922 34.8468 56.6586 40.4736" stroke="#161717" stroke-width="2.8"/>
<path d="M49.8594 41.8105C53.6497 41.8108 56.7227 44.8835 56.7227 48.6738C56.7225 52.464 53.6496 55.5369 49.8594 55.5371C46.069 55.5371 42.9963 52.4641 42.9961 48.6738C42.9961 44.8833 46.0689 41.8105 49.8594 41.8105Z" stroke="#161717" stroke-width="2.8"/>
<path d="M55.5332 54.5547L58.7005 57.9351" stroke="#161717" stroke-width="2.8"/>
<path fill-rule="evenodd" clip-rule="evenodd" d="M37.7736 35.8841L32.6548 39.5649C32.2414 39.8621 31.6843 39.8621 31.2709 39.5649L26.1522 35.8841C25.956 35.743 25.7961 35.5574 25.6858 35.3426C25.5755 35.1279 25.5178 34.8903 25.5176 34.6489V22.2515C25.5176 21.847 25.6787 21.4591 25.9655 21.1731C26.2522 20.8872 26.6412 20.7266 27.0467 20.7266H36.879C37.2846 20.7266 37.6736 20.8872 37.9603 21.1731C38.2471 21.4591 38.4082 21.847 38.4082 22.2515V34.6489C38.4079 34.8903 38.3502 35.1279 38.24 35.3426C38.1296 35.5574 37.9697 35.743 37.7736 35.8841Z" stroke="#161717" stroke-width="2.8"/>
<path d="M19.0762 44.3613H40.2961" stroke="#161717" stroke-width="2.8"/>
<path d="M19.0762 27.1719H25.5215" stroke="#161717" stroke-width="2.8"/>
<path d="M38.4102 27.1719H44.8554" stroke="#161717" stroke-width="2.8"/>
</svg>
