<svg width="48" height="48" viewBox="0 0 48 48" fill="none" xmlns="http://www.w3.org/2000/svg">
<rect width="48" height="48" rx="4.8" fill="#0C63E2"/>
<path d="M37.8971 17.5076L36.3002 19.1036C34.5959 20.8068 31.8315 20.8068 30.1272 19.1036C28.423 17.4003 28.423 14.6242 30.1272 12.9076L31.7242 11.3116C32.6099 10.4265 32.0194 9.39383 30.4359 9.63523C28.7585 9.89004 27.2152 10.6813 26.0209 11.8883C24.1153 13.8061 23.2967 16.5688 23.8603 19.2243L10.4677 32.6489C8.76338 34.3656 8.76338 37.1283 10.4677 38.8315C12.1585 40.5347 14.9229 40.5347 16.6272 38.8449L16.6406 38.8315L30.0199 25.4068C34.3276 26.3188 38.5681 23.5695 39.4806 19.2645C39.5075 19.117 39.5343 18.9695 39.5612 18.8085C39.8161 17.226 38.7828 16.6225 37.8971 17.5076ZM14.5875 36.7796C14.0238 37.3563 13.0979 37.3563 12.5343 36.7796C11.9706 36.2029 11.9706 35.2909 12.5343 34.7142C13.1247 34.1644 14.0373 34.1912 14.6009 34.7813C15.1108 35.3446 15.1108 36.2163 14.5875 36.7796Z" fill="white"/>
<path opacity="0.8" d="M13.1241 17.7761L17.5793 22.2554L19.6325 20.1901L15.1907 15.7107L14.05 13.5515L10.4536 10.9766L8.40039 13.0419L10.9635 16.6495L13.1241 17.7761Z" fill="white"/>
<path opacity="0.8" d="M30.6361 29.1487C30.3543 28.8671 29.898 28.8671 29.6162 29.1487L26.5297 32.2467C26.2479 32.5284 26.2479 32.9978 26.5297 33.2794L33.159 39.9448C34.2996 41.0847 36.1381 41.0847 37.2787 39.9448C38.4194 38.8048 38.4194 36.9541 37.2787 35.8141L30.6361 29.1487Z" fill="white"/>
</svg>
